<mxfile host="Electron" agent="Mozilla/5.0 (Windows NT 10.0; Win64; x64) AppleWebKit/537.36 (KHTML, like Gecko) draw.io/26.0.16 Chrome/132.0.6834.196 Electron/34.2.0 Safari/537.36" version="26.0.16">
  <diagram id="3EkDdmh-d5w6xEZ_ysIs" name="第 1 页">
    <mxGraphModel dx="979" dy="572" grid="1" gridSize="10" guides="1" tooltips="1" connect="1" arrows="1" fold="1" page="1" pageScale="1" pageWidth="3300" pageHeight="2339" math="1" shadow="0">
      <root>
        <mxCell id="0" />
        <mxCell id="1" parent="0" />
        <mxCell id="CmRMLwkYUhAE4UTupAH8-46" value="" style="rounded=0;whiteSpace=wrap;html=1;fontSize=12;" parent="1" vertex="1">
          <mxGeometry x="110" y="60" width="640" height="430" as="geometry" />
        </mxCell>
        <mxCell id="7WbuJ7efuTDxw6cy4vrb-23" value="" style="rounded=0;whiteSpace=wrap;html=1;fillColor=#dae8fc;strokeColor=#6c8ebf;" parent="1" vertex="1">
          <mxGeometry x="120" y="330" width="620" height="150" as="geometry" />
        </mxCell>
        <mxCell id="CmRMLwkYUhAE4UTupAH8-38" value="&lt;b&gt;总投入时间&lt;/b&gt;&lt;div&gt;&lt;b&gt;（Calendar Time）&lt;/b&gt;&lt;/div&gt;" style="rounded=0;whiteSpace=wrap;html=1;fillColor=#cdeb8b;strokeColor=#36393d;" parent="1" vertex="1">
          <mxGeometry x="120" y="120" width="600" height="40" as="geometry" />
        </mxCell>
        <mxCell id="7WbuJ7efuTDxw6cy4vrb-1" value="&lt;b&gt;计划停机时间&lt;/b&gt;&lt;div&gt;&lt;font style=&quot;font-size: 9px;&quot;&gt;&lt;b&gt;(&lt;/b&gt;&lt;span style=&quot;background-color: transparent;&quot;&gt;&lt;b&gt;Planned non-operation&lt;/b&gt;&lt;/span&gt;&lt;b style=&quot;background-color: transparent; color: light-dark(rgb(255, 255, 255), rgb(18, 18, 18));&quot;&gt;)&lt;/b&gt;&lt;/font&gt;&lt;/div&gt;&lt;div&gt;&lt;div&gt;&lt;b&gt;&lt;font style=&quot;font-size: 9px;&quot;&gt;(早会、&lt;/font&gt;&lt;/b&gt;&lt;b style=&quot;background-color: transparent; color: light-dark(rgb(255, 255, 255), rgb(18, 18, 18));&quot;&gt;&lt;font style=&quot;font-size: 9px;&quot;&gt;维护、无计划&lt;/font&gt;&lt;/b&gt;&lt;b style=&quot;background-color: transparent; color: light-dark(rgb(255, 255, 255), rgb(18, 18, 18));&quot;&gt;&lt;font style=&quot;font-size: 9px;&quot;&gt;等)&lt;/font&gt;&lt;/b&gt;&lt;/div&gt;&lt;/div&gt;" style="rounded=0;whiteSpace=wrap;html=1;fillColor=#a20025;strokeColor=#6F0000;fontColor=#ffffff;" parent="1" vertex="1">
          <mxGeometry x="580" y="160" width="140" height="40" as="geometry" />
        </mxCell>
        <mxCell id="7WbuJ7efuTDxw6cy4vrb-2" value="&lt;b&gt;负荷时间&lt;/b&gt;&lt;div&gt;&lt;b style=&quot;background-color: transparent; color: light-dark(rgb(0, 0, 0), rgb(255, 255, 255));&quot;&gt;（&lt;/b&gt;&lt;span style=&quot;background-color: transparent; color: light-dark(rgb(0, 0, 0), rgb(255, 255, 255));&quot;&gt;&lt;b&gt;Operating Time&lt;/b&gt;&lt;/span&gt;&lt;b style=&quot;background-color: transparent; color: light-dark(rgb(0, 0, 0), rgb(255, 255, 255));&quot;&gt;）&lt;/b&gt;&lt;/div&gt;" style="rounded=0;whiteSpace=wrap;html=1;fillColor=#cce5ff;strokeColor=#36393d;" parent="1" vertex="1">
          <mxGeometry x="120" y="160" width="460" height="40" as="geometry" />
        </mxCell>
        <mxCell id="7WbuJ7efuTDxw6cy4vrb-3" value="&lt;b&gt;宕机时间&lt;/b&gt;&lt;div&gt;&lt;b&gt;&lt;font style=&quot;font-size: 9px;&quot;&gt;(Down time)&lt;/font&gt;&lt;/b&gt;&lt;div&gt;&lt;b&gt;&lt;font style=&quot;font-size: 9px;&quot;&gt;(设备故障)&lt;/font&gt;&lt;/b&gt;&lt;/div&gt;&lt;/div&gt;" style="rounded=0;whiteSpace=wrap;html=1;fillColor=#a20025;strokeColor=#6F0000;fontColor=#ffffff;" parent="1" vertex="1">
          <mxGeometry x="480" y="200" width="100" height="40" as="geometry" />
        </mxCell>
        <mxCell id="7WbuJ7efuTDxw6cy4vrb-4" value="&lt;b&gt;稼动时间&lt;/b&gt;&lt;div&gt;&lt;b&gt;（Run Time）&lt;/b&gt;&lt;/div&gt;" style="rounded=0;whiteSpace=wrap;html=1;fillColor=#eeeeee;strokeColor=#36393d;" parent="1" vertex="1">
          <mxGeometry x="120" y="200" width="360" height="40" as="geometry" />
        </mxCell>
        <mxCell id="7WbuJ7efuTDxw6cy4vrb-5" value="&lt;b&gt;性能损失&lt;/b&gt;&lt;div&gt;&lt;font style=&quot;font-size: 9px;&quot;&gt;&lt;b&gt;(&lt;/b&gt;&lt;span style=&quot;background-color: transparent;&quot;&gt;&lt;b&gt;Speed loss&lt;/b&gt;&lt;/span&gt;&lt;b style=&quot;background-color: transparent; color: light-dark(rgb(255, 255, 255), rgb(18, 18, 18));&quot;&gt;)&lt;/b&gt;&lt;/font&gt;&lt;/div&gt;&lt;div&gt;&lt;div&gt;&lt;b&gt;&lt;font style=&quot;font-size: 9px;&quot;&gt;(缺料，小停顿)&lt;/font&gt;&lt;/b&gt;&lt;/div&gt;&lt;/div&gt;" style="rounded=0;whiteSpace=wrap;html=1;fillColor=#a20025;strokeColor=#6F0000;fontColor=#ffffff;" parent="1" vertex="1">
          <mxGeometry x="380" y="240" width="100" height="40" as="geometry" />
        </mxCell>
        <mxCell id="7WbuJ7efuTDxw6cy4vrb-6" value="&lt;b&gt;净稼动时间&lt;/b&gt;&lt;div&gt;&lt;b&gt;（Net Run Time）&lt;/b&gt;&lt;/div&gt;" style="rounded=0;whiteSpace=wrap;html=1;fillColor=#ffff88;strokeColor=#36393d;" parent="1" vertex="1">
          <mxGeometry x="120" y="240" width="260" height="40" as="geometry" />
        </mxCell>
        <mxCell id="7WbuJ7efuTDxw6cy4vrb-7" value="&lt;b&gt;品质不良&lt;/b&gt;&lt;div&gt;&lt;font style=&quot;font-size: 9px;&quot;&gt;&lt;b&gt;(&lt;/b&gt;&lt;span style=&quot;background-color: transparent;&quot;&gt;&lt;b&gt;Quality loss&lt;/b&gt;&lt;/span&gt;&lt;b style=&quot;background-color: transparent; color: light-dark(rgb(255, 255, 255), rgb(18, 18, 18));&quot;&gt;)&lt;/b&gt;&lt;/font&gt;&lt;/div&gt;&lt;div&gt;&lt;div&gt;&lt;b&gt;&lt;font style=&quot;font-size: 9px;&quot;&gt;(产品报废，返修)&lt;/font&gt;&lt;/b&gt;&lt;/div&gt;&lt;/div&gt;" style="rounded=0;whiteSpace=wrap;html=1;fillColor=#a20025;strokeColor=#6F0000;fontColor=#ffffff;" parent="1" vertex="1">
          <mxGeometry x="300" y="280" width="80" height="40" as="geometry" />
        </mxCell>
        <mxCell id="7WbuJ7efuTDxw6cy4vrb-8" value="&lt;b&gt;价值稼动时间&lt;/b&gt;&lt;div&gt;&lt;b&gt;（Valuable Operating Time）&lt;/b&gt;&lt;/div&gt;" style="rounded=0;whiteSpace=wrap;html=1;fillColor=#ffcccc;strokeColor=#36393d;" parent="1" vertex="1">
          <mxGeometry x="120" y="280" width="180" height="40" as="geometry" />
        </mxCell>
        <mxCell id="7WbuJ7efuTDxw6cy4vrb-9" value="`OE E=时间稼动率×性能稼动率×良品率=`" style="text;html=1;align=center;verticalAlign=middle;whiteSpace=wrap;rounded=0;fontSize=16;fontColor=#FF0000;" parent="1" vertex="1">
          <mxGeometry x="160" y="60" width="360" height="60" as="geometry" />
        </mxCell>
        <mxCell id="7WbuJ7efuTDxw6cy4vrb-10" value="`时间稼动率(Availability)=\frac{稼动时间}{负荷时间}`&amp;nbsp;" style="text;html=1;align=left;verticalAlign=middle;whiteSpace=wrap;rounded=0;fontSize=12;" parent="1" vertex="1">
          <mxGeometry x="120" y="340" width="280" height="40" as="geometry" />
        </mxCell>
        <mxCell id="7WbuJ7efuTDxw6cy4vrb-11" value="`性能稼动率(Perfo rmance)=\frac{理论节拍×总产量}{稼动时间}`" style="text;html=1;align=left;verticalAlign=middle;whiteSpace=wrap;rounded=0;fontSize=12;" parent="1" vertex="1">
          <mxGeometry x="410" y="340" width="300" height="40" as="geometry" />
        </mxCell>
        <mxCell id="7WbuJ7efuTDxw6cy4vrb-12" value="`良品率(Quality)=\frac{良品产量(Good \quad Products)}{总产量} `" style="text;html=1;align=left;verticalAlign=middle;whiteSpace=wrap;rounded=0;fontSize=12;" parent="1" vertex="1">
          <mxGeometry x="120" y="390" width="280" height="40" as="geometry" />
        </mxCell>
        <mxCell id="7WbuJ7efuTDxw6cy4vrb-13" value="`\frac{理论节拍×良品产量}{负荷时间}`&amp;nbsp;" style="text;html=1;align=left;verticalAlign=middle;whiteSpace=wrap;rounded=0;fontSize=16;labelBackgroundColor=none;fontStyle=1;fontColor=#FF0000;" parent="1" vertex="1">
          <mxGeometry x="520" y="60" width="180" height="60" as="geometry" />
        </mxCell>
        <mxCell id="7WbuJ7efuTDxw6cy4vrb-14" value="`净稼动时间≈理论节拍×总产量`&amp;nbsp;" style="text;html=1;align=left;verticalAlign=middle;whiteSpace=wrap;rounded=0;fontSize=12;" parent="1" vertex="1">
          <mxGeometry x="480" y="240" width="200" height="40" as="geometry" />
        </mxCell>
        <mxCell id="7WbuJ7efuTDxw6cy4vrb-15" value="`价值稼动时间≈理论节拍×良品产量`&amp;nbsp;" style="text;html=1;align=left;verticalAlign=middle;whiteSpace=wrap;rounded=0;fontSize=12;" parent="1" vertex="1">
          <mxGeometry x="380" y="280" width="220" height="40" as="geometry" />
        </mxCell>
        <mxCell id="7WbuJ7efuTDxw6cy4vrb-16" value="`实际节拍(Actual \quad Cycl e \quad Time)=\frac{总产量}{稼动时间}`&amp;nbsp;" style="text;html=1;align=left;verticalAlign=middle;whiteSpace=wrap;rounded=0;fontSize=12;" parent="1" vertex="1">
          <mxGeometry x="410" y="390" width="300" height="40" as="geometry" />
        </mxCell>
        <mxCell id="7WbuJ7efuTDxw6cy4vrb-19" value="&lt;span&gt;`理论节拍(Ideal \quad Cycl e \quad Time)`&lt;/span&gt;" style="text;html=1;align=left;verticalAlign=middle;whiteSpace=wrap;rounded=0;fontSize=12;" parent="1" vertex="1">
          <mxGeometry x="120" y="440" width="180" height="40" as="geometry" />
        </mxCell>
        <mxCell id="7WbuJ7efuTDxw6cy4vrb-22" value="&lt;span&gt;`整体设备效能(Overall \quad Equip ment \quad Effectiven ess)`&lt;/span&gt;" style="text;html=1;align=left;verticalAlign=middle;whiteSpace=wrap;rounded=0;fontSize=12;" parent="1" vertex="1">
          <mxGeometry x="400" y="440" width="310" height="40" as="geometry" />
        </mxCell>
      </root>
    </mxGraphModel>
  </diagram>
</mxfile>
